<?xml version="1.0" encoding="UTF-8"?><svg id="Warstwa_1" xmlns="http://www.w3.org/2000/svg" viewBox="0 0 42.04 42.04"><rect x="10.89" y="24.54" width="6.54" height="6.72" rx=".14" ry=".14"/><path d="M24.17,18.5c-.07,0-.11,.03-.11,.09v4.81c0,.07,.04,.11,.11,.11h4.65c.07,0,.11-.04,.11-.11v-4.81c0-.06-.04-.09-.11-.09h-4.65Z"/><path d="M27.51,28.77v5h1.32c.07,0,.11-.04,.11-.11v-4.79c0-.07-.04-.11-.11-.11h-1.32Z"/><path d="M24.17,8.29c-.07,0-.11,.03-.11,.09v4.81c0,.07,.04,.11,.11,.11h4.65c.07,0,.11-.04,.11-.11v-4.81c0-.06-.04-.09-.11-.09h-4.65Z"/><path d="M21.02,0C9.41,0,0,9.41,0,21.02s9.41,21.02,21.02,21.02,21.02-9.41,21.02-21.02S32.63,0,21.02,0Zm-.9,31.12c0,.78-.28,1.45-.83,2-.55,.56-1.22,.83-2,.83h-6.25c-.78,0-1.45-.28-2-.83-.56-.55-.83-1.22-.83-2v-6.43c0-.78,.28-1.45,.83-2,.56-.55,1.22-.83,2-.83h6.25c.78,0,1.45,.28,2,.83s.83,1.22,.83,2v6.43Zm0-11.02h-2.69V10.88c0-.1-.05-.14-.14-.14h-6.25c-.1,0-.14,.05-.14,.14v9.27h-2.69V10.88c0-.78,.28-1.45,.83-2,.56-.55,1.22-.83,2-.83h6.25c.78,0,1.45,.28,2,.83s.83,1.22,.83,2v9.23Zm10.81,13.56c0,.58-.21,1.08-.62,1.49-.41,.41-.91,.62-1.49,.62h-3.34v-7.01h-1.32c-.07,0-.11,.04-.11,.11v6.9h-2.01v-6.9c0-.58,.21-1.08,.62-1.49,.41-.41,.91-.62,1.49-.62h4.65c.58,0,1.08,.21,1.49,.62,.41,.41,.62,.91,.62,1.49v4.79Zm2.91-8.16h-11.78v-6.92c0-.58,.21-1.08,.62-1.49,.41-.41,.91-.62,1.49-.62h4.65c.58,0,1.08,.21,1.49,.62,.41,.41,.62,.91,.62,1.49v4.91h2.91v2Zm0-10.21h-11.78v-6.92c0-.58,.21-1.08,.62-1.49,.41-.41,.91-.62,1.49-.62h4.65c.58,0,1.08,.21,1.49,.62,.41,.41,.62,.91,.62,1.49v4.91h2.91v2Z"/></svg>