<?xml version="1.0" encoding="UTF-8"?><svg id="b" xmlns="http://www.w3.org/2000/svg" viewBox="0 0 98.16 30.94"><g id="c"><g><rect x="8.02" y="18.06" width="4.81" height="4.94" rx=".11" ry=".11"/><path d="M17.78,13.61c-.05,0-.08,.02-.08,.07v3.54c0,.05,.03,.08,.08,.08h3.42c.05,0,.08-.03,.08-.08v-3.54s-.03-.07-.08-.07h-3.42Z"/><path d="M20.24,21.16v3.68h.97c.05,0,.08-.03,.08-.08v-3.52c0-.05-.03-.08-.08-.08h-.97Z"/><path d="M17.78,6.1c-.05,0-.08,.02-.08,.07v3.54c0,.05,.03,.08,.08,.08h3.42c.05,0,.08-.03,.08-.08v-3.54s-.03-.07-.08-.07h-3.42Z"/><path d="M15.47,0C6.93,0,0,6.93,0,15.47s6.93,15.47,15.47,15.47,15.47-6.93,15.47-15.47S24.01,0,15.47,0Zm-.66,22.9c0,.57-.2,1.07-.61,1.47-.41,.41-.9,.61-1.47,.61h-4.6c-.57,0-1.07-.2-1.47-.61-.41-.41-.61-.9-.61-1.47v-4.73c0-.57,.2-1.07,.61-1.47,.41-.41,.9-.61,1.47-.61h4.6c.57,0,1.07,.2,1.47,.61s.61,.9,.61,1.47v4.73Zm0-8.11h-1.98v-6.79c0-.07-.04-.11-.11-.11h-4.6c-.07,0-.11,.04-.11,.11v6.82h-1.98v-6.82c0-.57,.2-1.07,.61-1.47,.41-.41,.9-.61,1.47-.61h4.6c.57,0,1.07,.2,1.47,.61s.61,.9,.61,1.47v6.79Zm7.96,9.98c0,.43-.15,.79-.46,1.1-.3,.3-.67,.46-1.1,.46h-2.45v-5.16h-.97c-.05,0-.08,.03-.08,.08v5.08h-1.48v-5.08c0-.43,.15-.79,.46-1.1,.3-.3,.67-.46,1.1-.46h3.42c.43,0,.79,.15,1.1,.46,.3,.3,.46,.67,.46,1.1v3.52Zm2.14-6h-8.67v-5.09c0-.43,.15-.79,.46-1.1,.3-.3,.67-.46,1.1-.46h3.42c.43,0,.79,.15,1.1,.46,.3,.3,.46,.67,.46,1.1v3.61h2.14v1.48Zm0-7.51h-8.67V6.17c0-.43,.15-.79,.46-1.1,.3-.3,.67-.46,1.1-.46h3.42c.43,0,.79,.15,1.1,.46,.3,.3,.46,.67,.46,1.1v3.61h2.14v1.48Z"/></g><g id="d"><path id="e" d="M60.11,16.95c0,.78-.91,1.04-1.65,1.04-.82,0-1.62-.22-1.62-1.07v-2.57c0-.85,.81-1.07,1.62-1.07,.74,0,1.65,.26,1.65,1.04v2.62h0Zm-1.64-5.44c-2.06,0-3.92,.58-3.92,3v2.3c0,2.36,1.84,2.96,3.91,2.96s3.94-.6,3.94-3v-2.29c0-2.35-1.88-2.97-3.92-2.97m34.1,3.96v-2.05h2.6c.4,0,.66,.14,.66,.58v.88c0,.44-.26,.58-.66,.58m.64,1.39c1.38-.09,2.3-.09,2.3-1.66v-1.14c0-1.42-.7-2.39-2.44-2.39h-5.38v7.95h2.29v-2.55h.87l2.07,2.55h2.65l-2.35-2.75h0Zm-12.39-.93h-3.27v-1.52c0-.87,.97-1.12,1.62-1.12s1.65,.21,1.65,1.1v1.53Zm-1.56-4.42c-2.09,0-3.84,.66-3.84,3.06v5.04h2.13v-1.92h3.27v1.92h2.27v-5.1c0-2.23-1.77-3-3.83-3m-12.32,.1c-2.06,0-2.75,1.09-2.75,2.82v2.43c0,1.92,.88,2.81,2.86,2.81h3.88l.1-.11v-1.69h-3.48c-.66,0-1.08-.35-1.08-.97v-2.52c0-.62,.38-.97,1.04-.97h3.52v-1.68l-.12-.12h-3.97Zm-21.45,4.43l-3.51-4.38h-2.38v7.95h1.96v-4.73l3.71,4.73h2.17v-7.95h-1.96v4.38Z" style="fill:#223468;"/></g></g></svg>